<svg width="1441" height="1024" viewBox="0 0 1441 1024" fill="none" xmlns="http://www.w3.org/2000/svg">
<g clip-path="url(#clip0_118_44)">
<line x1="21.5276" y1="4.37114e-08" x2="21.5275" y2="1024" stroke="url(#paint0_linear_118_44)" stroke-width="2"/>
<line x1="121.528" y1="4.37114e-08" x2="121.528" y2="1024" stroke="url(#paint1_linear_118_44)" stroke-width="2"/>
<line x1="221.528" y1="4.37114e-08" x2="221.528" y2="1024" stroke="#2E2E2E" stroke-width="2"/>
<line x1="321.528" y1="4.37114e-08" x2="321.528" y2="1024" stroke="#2E2E2E" stroke-width="2"/>
<line y1="-1" x2="1024" y2="-1" transform="matrix(-4.37114e-08 -1 -1 4.37114e-08 420.528 1024)" stroke="url(#paint2_linear_118_44)" stroke-width="2"/>
<line y1="-1" x2="1024" y2="-1" transform="matrix(-4.37114e-08 -1 -1 4.37114e-08 520.528 1024)" stroke="url(#paint3_linear_118_44)" stroke-width="2"/>
<line x1="621.528" y1="4.37114e-08" x2="621.528" y2="1024" stroke="#2E2E2E" stroke-width="2"/>
<line x1="721.528" y1="4.37114e-08" x2="721.528" y2="1024" stroke="#2E2E2E" stroke-width="2"/>
<line x1="821.528" y1="4.37114e-08" x2="821.528" y2="1024" stroke="url(#paint4_linear_118_44)" stroke-width="2"/>
<line x1="921.528" y1="4.37114e-08" x2="921.528" y2="1024" stroke="url(#paint5_linear_118_44)" stroke-width="2"/>
<line x1="1021.53" y1="4.37114e-08" x2="1021.53" y2="1024" stroke="#2E2E2E" stroke-width="2"/>
<line x1="1121.53" y1="4.37114e-08" x2="1121.53" y2="1024" stroke="#2E2E2E" stroke-width="2"/>
<line y1="-1" x2="1024" y2="-1" transform="matrix(-4.37114e-08 -1 -1 4.37114e-08 1220.53 1024)" stroke="url(#paint6_linear_118_44)" stroke-width="2"/>
<line y1="-1" x2="1024" y2="-1" transform="matrix(-4.37114e-08 -1 -1 4.37114e-08 1320.53 1024)" stroke="url(#paint7_linear_118_44)" stroke-width="2"/>
<line x1="1421.53" y1="4.37114e-08" x2="1421.53" y2="1024" stroke="#2E2E2E" stroke-width="2"/>
</g>
<line y1="-1" x2="1423.29" y2="-1" transform="matrix(1 0.00014297 -0.000358392 1 17 61)" stroke="#2E2E2E" stroke-width="2"/>
<line y1="-1" x2="1423.29" y2="-1" transform="matrix(1 0.00014297 -0.000358392 1 17 161.203)" stroke="#2E2E2E" stroke-width="2"/>
<line y1="-1" x2="1423.29" y2="-1" transform="matrix(1 0.00014297 -0.000358392 1 17 261.407)" stroke="#2E2E2E" stroke-width="2"/>
<line y1="-1" x2="1423.29" y2="-1" transform="matrix(1 0.00014297 -0.000358392 1 17 361.61)" stroke="#2E2E2E" stroke-width="2"/>
<line y1="-1" x2="1423.29" y2="-1" transform="matrix(1 0.00014297 -0.000358392 1 17 461.814)" stroke="#2E2E2E" stroke-width="2"/>
<line y1="-1" x2="1423.29" y2="-1" transform="matrix(1 0.00014297 -0.000358392 1 17 562.017)" stroke="#2E2E2E" stroke-width="2"/>
<line y1="-1" x2="1423.29" y2="-1" transform="matrix(1 0.00014297 -0.000358392 1 17 662.221)" stroke="#2E2E2E" stroke-width="2"/>
<line y1="-1" x2="1423.29" y2="-1" transform="matrix(1 0.00014297 -0.000358392 1 17 762.424)" stroke="#2E2E2E" stroke-width="2"/>
<line y1="-1" x2="1423.29" y2="-1" transform="matrix(1 0.00014297 -0.000358392 1 17 862.628)" stroke="#2E2E2E" stroke-width="2"/>
<line y1="-1" x2="1423.29" y2="-1" transform="matrix(1 0.00014297 -0.000358392 1 17 962.831)" stroke="#2E2E2E" stroke-width="2"/>
<defs>
<linearGradient id="paint0_linear_118_44" x1="20.5276" y1="1033.29" x2="20.5276" y2="-11.3953" gradientUnits="userSpaceOnUse">
<stop offset="0.229167" stop-color="white" stop-opacity="0"/>
<stop offset="0.84375" stop-color="white" stop-opacity="0.24"/>
</linearGradient>
<linearGradient id="paint1_linear_118_44" x1="120.528" y1="1033.29" x2="120.528" y2="-11.3953" gradientUnits="userSpaceOnUse">
<stop offset="0.229167" stop-color="white" stop-opacity="0"/>
<stop offset="0.84375" stop-color="white" stop-opacity="0.24"/>
</linearGradient>
<linearGradient id="paint2_linear_118_44" x1="1033.29" y1="-4.51667e-05" x2="-11.3953" y2="4.98019e-07" gradientUnits="userSpaceOnUse">
<stop offset="0.229167" stop-color="white" stop-opacity="0"/>
<stop offset="0.84375" stop-color="white" stop-opacity="0.24"/>
</linearGradient>
<linearGradient id="paint3_linear_118_44" x1="1033.29" y1="-4.51667e-05" x2="-11.3953" y2="4.98019e-07" gradientUnits="userSpaceOnUse">
<stop offset="0.229167" stop-color="white" stop-opacity="0"/>
<stop offset="0.84375" stop-color="white" stop-opacity="0.24"/>
</linearGradient>
<linearGradient id="paint4_linear_118_44" x1="820.528" y1="1033.29" x2="820.528" y2="-11.3953" gradientUnits="userSpaceOnUse">
<stop offset="0.229167" stop-color="white" stop-opacity="0"/>
<stop offset="0.84375" stop-color="white" stop-opacity="0.24"/>
</linearGradient>
<linearGradient id="paint5_linear_118_44" x1="920.528" y1="1033.29" x2="920.528" y2="-11.3953" gradientUnits="userSpaceOnUse">
<stop offset="0.229167" stop-color="white" stop-opacity="0"/>
<stop offset="0.84375" stop-color="white" stop-opacity="0.24"/>
</linearGradient>
<linearGradient id="paint6_linear_118_44" x1="1033.29" y1="-4.51667e-05" x2="-11.3953" y2="4.98019e-07" gradientUnits="userSpaceOnUse">
<stop offset="0.229167" stop-color="white" stop-opacity="0"/>
<stop offset="0.84375" stop-color="white" stop-opacity="0.24"/>
</linearGradient>
<linearGradient id="paint7_linear_118_44" x1="1033.29" y1="-4.51667e-05" x2="-11.3953" y2="4.98019e-07" gradientUnits="userSpaceOnUse">
<stop offset="0.229167" stop-color="white" stop-opacity="0"/>
<stop offset="0.84375" stop-color="white" stop-opacity="0.24"/>
</linearGradient>
<clipPath id="clip0_118_44">
<rect width="1440" height="1024" fill="white" transform="translate(0.527954)"/>
</clipPath>
</defs>
</svg>
